<?xml version="1.0" standalone="no"?>
<!DOCTYPE svg PUBLIC "-//W3C//DTD SVG 20010904//EN"
 "http://www.w3.org/TR/2001/REC-SVG-20010904/DTD/svg10.dtd">
<svg version="1.0" xmlns="http://www.w3.org/2000/svg"
 width="512.000000pt" height="512.000000pt" viewBox="0 0 512.000000 512.000000"
 preserveAspectRatio="xMidYMid meet">
<metadata>
Created by potrace 1.11, written by Peter Selinger 2001-2013
</metadata>
<g transform="translate(0.000000,512.000000) scale(0.100000,-0.100000)"
fill="#000000" stroke="none">
<path d="M1289 4680 c-1 -14 -1 -29 0 -34 4 -21 11 -142 16 -274 3 -79 6 -147
6 -150 1 -4 0 -11 -1 -17 -2 -5 -4 -26 -5 -45 -1 -19 -8 -69 -15 -110 -8 -41
-13 -78 -12 -82 1 -5 -2 -8 -8 -8 -5 0 -10 -7 -10 -16 0 -19 -70 -127 -78
-120 -3 3 -11 -2 -18 -12 -10 -13 -28 -17 -87 -17 -41 0 -85 5 -98 11 -13 6
-52 26 -87 43 -34 17 -66 31 -71 31 -10 0 -6 -68 5 -110 4 -14 8 -27 9 -30 5
-18 16 -70 20 -99 10 -62 73 -250 115 -346 43 -98 49 -111 50 -120 1 -5 7 -17
14 -25 7 -8 32 -51 56 -95 40 -76 65 -118 83 -140 34 -44 85 -125 78 -125 -5
0 -25 7 -45 15 -20 8 -38 15 -41 15 -3 0 -6 0 -7 1 -2 0 -10 2 -18 4 -8 1 -33
8 -55 14 -22 5 -62 13 -90 16 -27 2 -63 7 -80 11 -46 8 -252 12 -265 4 -7 -4
22 -30 72 -65 84 -59 98 -73 109 -110 6 -21 -9 -65 -22 -65 -4 0 -11 -9 -14
-21 -4 -11 -9 -18 -12 -15 -3 3 -21 -6 -39 -21 -19 -14 -34 -22 -34 -18 0 4
-6 3 -12 -3 -13 -10 -110 -49 -188 -75 -51 -17 -132 -42 -140 -42 -3 -1 -15
-4 -28 -9 -17 -6 -19 -10 -10 -19 10 -9 102 -43 168 -62 12 -4 88 -37 120 -52
43 -21 138 -83 127 -83 -4 0 3 -10 16 -22 44 -41 45 -116 3 -160 -36 -38 -89
-79 -129 -99 -36 -19 -45 -42 -19 -45 7 -1 14 -3 17 -4 18 -9 177 -24 250 -23
91 1 273 14 415 29 148 17 316 12 425 -11 17 -3 35 -7 41 -8 7 -2 19 -9 28
-16 9 -8 19 -11 22 -8 3 3 29 -12 57 -34 29 -21 55 -39 60 -39 21 0 -2 -29
-86 -113 -100 -98 -186 -177 -194 -177 -3 0 -14 -10 -24 -22 -11 -11 -19 -17
-19 -12 0 5 -4 4 -8 -1 -4 -6 -23 -22 -42 -35 -19 -13 -37 -27 -40 -30 -3 -4
-27 -20 -55 -35 -27 -16 -52 -32 -55 -36 -6 -9 -284 -150 -302 -153 -19 -4
-70 -25 -90 -36 -10 -6 -26 -10 -36 -10 -10 0 -23 -5 -30 -12 -7 -7 -12 -9
-12 -6 0 3 -21 -1 -47 -9 -56 -18 -146 -40 -220 -55 -29 -5 -53 -13 -53 -17 0
-4 9 -17 19 -28 11 -12 17 -24 14 -27 -4 -3 0 -6 7 -6 7 0 11 -3 7 -6 -3 -4 0
-13 8 -21 18 -18 18 -66 1 -116 -14 -39 -8 -52 22 -43 9 3 35 8 57 12 22 3 43
8 48 11 4 2 20 7 35 9 15 3 50 12 77 20 28 7 52 13 55 12 3 -2 16 5 29 14 13
9 30 14 37 11 8 -3 14 -1 14 5 0 6 14 14 32 17 17 4 47 16 65 26 18 10 33 15
33 11 0 -4 4 -2 8 3 4 6 35 23 70 39 34 16 62 34 62 38 0 5 5 6 10 3 6 -3 10
-1 10 5 0 6 4 9 9 6 5 -3 14 1 21 9 7 8 16 13 20 10 4 -3 10 2 14 10 3 8 10
15 16 15 9 0 87 52 140 95 37 30 199 195 244 248 46 55 106 143 106 155 0 5
13 26 30 48 16 21 30 46 30 54 1 16 34 60 44 60 4 0 22 -15 41 -32 19 -18 40
-38 47 -44 7 -5 27 -27 43 -49 17 -21 35 -43 40 -49 15 -18 32 -46 61 -101 14
-27 32 -57 39 -65 8 -8 14 -18 15 -22 0 -4 15 -38 32 -75 17 -38 31 -74 31
-80 0 -7 3 -13 7 -13 3 0 12 -17 19 -38 7 -20 19 -50 26 -67 11 -29 20 -54 46
-127 7 -18 15 -42 20 -53 17 -44 53 -171 52 -182 0 -7 3 -13 7 -13 7 0 14 -24
27 -98 3 -18 9 -35 14 -38 5 -3 9 -16 9 -30 0 -40 30 -25 37 19 6 38 57 127
82 144 29 19 100 25 119 10 6 -5 12 -7 12 -3 0 4 31 -15 69 -41 69 -49 141
-108 141 -117 0 -3 15 -20 33 -38 17 -18 44 -48 59 -65 48 -59 51 -52 53 107
3 192 17 289 49 329 6 8 10 16 9 18 -8 10 0 22 29 43 32 24 75 33 93 19 6 -4
15 -8 20 -10 20 -4 61 -24 88 -42 16 -11 31 -17 34 -13 3 3 -2 32 -13 63 -10
32 -19 60 -19 63 -1 3 -7 18 -13 33 -7 15 -15 39 -18 52 -3 14 -10 25 -16 25
-5 0 -6 5 -3 10 3 6 1 10 -4 10 -6 0 -10 3 -9 7 4 14 -68 149 -100 188 -5 6
-16 22 -26 37 -16 25 -16 26 1 23 10 -2 18 -4 18 -5 0 -1 11 -4 25 -7 38 -7
55 -11 58 -13 2 -3 6 -4 52 -13 19 -4 46 -9 60 -12 44 -9 74 -14 125 -21 28
-3 59 -9 70 -11 11 -3 100 -7 197 -8 187 -2 280 10 421 54 53 17 67 26 67 41
0 11 -4 20 -9 20 -14 0 -111 95 -111 109 0 6 -4 11 -9 11 -14 0 -41 84 -37
115 8 55 14 71 40 110 14 21 26 35 26 32 0 -3 17 9 38 28 31 29 144 98 162
100 3 0 12 5 20 10 8 5 20 10 25 11 6 1 24 8 40 15 17 7 33 12 38 11 4 -1 7 3
7 8 0 5 3 9 8 8 4 -1 38 8 75 21 37 13 73 24 80 26 55 14 57 16 57 64 0 37 -4
47 -17 49 -22 2 -58 10 -58 12 0 2 -12 4 -55 13 -108 22 -324 89 -346 108 -8
6 -14 8 -14 5 0 -9 -113 70 -135 94 -24 26 -29 83 -12 117 8 15 34 49 57 76
39 44 40 47 21 55 -52 19 -334 -1 -516 -38 -27 -5 -63 -12 -80 -15 -163 -28
-210 -37 -219 -43 -6 -3 -22 -7 -36 -8 -14 -2 -35 -6 -48 -9 -21 -5 -19 0 20
59 24 36 48 65 53 65 6 1 19 16 30 34 20 35 57 72 126 127 23 19 60 51 80 70
21 19 58 54 83 78 25 24 46 48 46 53 0 6 5 7 10 4 6 -3 10 -3 10 2 0 4 18 27
40 51 22 23 40 47 40 52 0 6 6 10 13 10 7 0 21 13 30 30 10 16 40 55 67 87 27
32 58 74 67 93 10 19 34 60 53 90 48 76 49 86 3 89 -77 3 -114 9 -128 21 -8 6
-18 9 -23 6 -9 -5 -96 86 -97 102 -1 4 -7 25 -15 47 -10 27 -15 81 -15 165 0
115 3 148 21 250 3 19 7 48 9 65 2 16 4 31 5 33 2 1 3 5 4 10 4 13 30 127 31
132 3 20 72 261 80 281 11 29 -10 29 -46 0 -19 -15 -70 -52 -114 -81 -44 -30
-82 -57 -85 -60 -3 -4 -27 -20 -55 -35 -27 -16 -52 -32 -55 -36 -3 -3 -23 -16
-45 -28 -76 -41 -150 -84 -155 -90 -3 -3 -9 -6 -15 -7 -5 0 -37 -13 -70 -29
-33 -16 -64 -30 -70 -31 -5 -2 -41 -12 -80 -24 -81 -24 -175 -24 -219 -1 -35
18 -65 50 -66 69 0 6 -4 12 -10 12 -5 0 -10 9 -10 19 0 11 -4 22 -8 25 -5 3
-9 28 -9 56 -1 29 -4 55 -7 58 -15 15 -196 -219 -196 -253 0 -8 -3 -15 -8 -17
-8 -3 -72 -101 -72 -111 0 -5 -35 -65 -79 -137 -9 -14 -16 -27 -16 -30 -1 -7
-48 -101 -75 -147 -6 -10 -13 -25 -16 -33 -3 -8 -19 -41 -35 -72 -16 -32 -26
-58 -22 -58 3 0 -2 -9 -13 -21 -10 -11 -19 -26 -19 -32 0 -7 -12 -37 -27 -67
-46 -97 -82 -175 -82 -182 -1 -3 -4 -9 -8 -12 -5 -3 -6 -3 -4 0 2 3 0 19 -5
36 -10 35 -19 92 -24 153 -2 22 -11 78 -20 125 -23 123 -23 120 -31 178 -4 29
-11 55 -15 58 -5 3 -9 15 -9 27 0 54 -79 328 -96 334 -6 2 -21 -17 -34 -43
-70 -151 -174 -153 -324 -8 -7 6 -28 31 -47 54 -18 23 -39 47 -44 54 -6 6 -22
27 -35 46 -13 19 -29 40 -35 46 -5 6 -19 27 -30 47 -11 20 -23 37 -27 37 -5 0
-8 5 -8 10 0 6 -11 27 -23 48 -13 20 -44 71 -67 112 -24 41 -50 84 -57 95 -13
19 -13 19 -14 -5z"/>
</g>
</svg>
